<svg width="24" height="24" viewBox="0 0 24 24" fill="none" xmlns="http://www.w3.org/2000/svg">
<style>
  path {
    fill: black;
  }
  @media (prefers-color-scheme: dark) {
    path {
      fill: white;
    }
  }
</style>
<path
  fill-rule="evenodd"
  clip-rule="evenodd"
  d="M2.03484 21.9652C3.1855 23.1158 4.61742 23.5849 6.20342 23.7981C7.70603 24.0001 9.59879 24.0001 11.8686 24H12.1314C14.4012 24.0001 16.294 24.0001 17.7966 23.7981C19.3826 23.5849 20.8145 23.1158 21.9652 21.9652C23.1158 20.8145 23.5849 19.3826 23.7981 17.7966C24.0001 16.294 24.0001 14.4012 24 12.1314V11.8686C24.0001 9.59881 24.0001 7.70603 23.7981 6.20342C23.5849 4.61742 23.1158 3.1855 21.9652 2.03484C20.8145 0.884181 19.3826 0.415119 17.7966 0.201887C16.294 -0.000133291 14.4012 -7.14038e-05 12.1314 2.83221e-06H11.8686C9.59879 -7.14038e-05 7.70603 -0.000133291 6.20342 0.201887C4.61742 0.415119 3.1855 0.884181 2.03484 2.03484C0.884181 3.1855 0.415119 4.61742 0.201887 6.20342C-0.000133291 7.70603 -7.14038e-05 9.59879 2.83221e-06 11.8686V12.1314C-7.14038e-05 14.4012 -0.000133291 16.294 0.201887 17.7966C0.415119 19.3826 0.884181 20.8145 2.03484 21.9652ZM1.89474 12C1.89474 7.23634 1.89474 4.8545 3.37462 3.37462C4.8545 1.89474 7.23634 1.89474 12 1.89474C16.7637 1.89474 19.1455 1.89474 20.6254 3.37462C22.1053 4.8545 22.1053 7.23633 22.1053 12C22.1053 16.7636 22.1053 19.1455 20.6254 20.6254C19.1455 22.1053 16.7637 22.1053 12 22.1053C7.23636 22.1053 4.8545 22.1053 3.37462 20.6254C1.89474 19.1455 1.89474 16.7637 1.89474 12ZM10.056 15.728L9.19226 14.8768C7.58339 13.2914 7.58339 10.7086 9.19226 9.12316L10.056 8.27202C10.3713 7.96133 10.3743 7.45368 10.0628 7.13921L8.6106 5.67313C7.29762 4.34763 5.05263 5.28641 5.05263 7.16095V16.8391C5.05263 18.7136 7.29762 19.6524 8.6106 18.3269L10.0628 16.8608C10.3743 16.5463 10.3713 16.0387 10.056 15.728ZM16.154 13.4523L18.3718 15.6379C18.7403 16.001 18.9474 16.4935 18.9474 17.0071C18.9474 18.7322 16.8308 19.5962 15.5929 18.3763L10.5961 13.4523C9.78213 12.6502 9.78213 11.3498 10.5961 10.5477L15.5929 5.62368C16.8308 4.40382 18.9474 5.26778 18.9474 6.99292C18.9474 7.50648 18.7403 7.99901 18.3718 8.36215L16.154 10.5477C15.34 11.3498 15.34 12.6502 16.154 13.4523Z"
/>
</svg>
